<svg xmlns="http://www.w3.org/2000/svg" width="1120" height="710" viewBox="0 0 1120 710"><defs><marker id="a" markerWidth="10" markerHeight="10" refX="9" refY="3" orient="auto"><path d="M0,0 L10,3 L0,6 z" fill="#384b59"/></marker></defs><rect width="100%" height="100%" fill="white"/><text x="35" y="42" font-family="Arial" font-size="25" font-weight="bold">AWS two-VPC network topology and peering</text><rect x="35" y="100" width="500" height="520" rx="14" fill="#d9eaf7" fill-opacity=".28" stroke="#7b8790" stroke-dasharray="8 5"/><text x="50" y="128" font-family="Arial" font-size="16" font-weight="bold">Source VPC 10.10.0.0/16</text><rect x="605" y="100" width="500" height="520" rx="14" fill="#d9eaf7" fill-opacity=".28" stroke="#7b8790" stroke-dasharray="8 5"/><text x="620" y="128" font-family="Arial" font-size="16" font-weight="bold">Destination VPC 10.20.0.0/16</text><rect x="55" y="145" width="220" height="430" rx="14" fill="#e6e8eb" fill-opacity=".28" stroke="#7b8790" stroke-dasharray="8 5"/><text x="70" y="173" font-family="Arial" font-size="16" font-weight="bold">eu-west-1a</text><rect x="295" y="145" width="220" height="430" rx="14" fill="#e6e8eb" fill-opacity=".28" stroke="#7b8790" stroke-dasharray="8 5"/><text x="310" y="173" font-family="Arial" font-size="16" font-weight="bold">eu-west-1b</text><rect x="625" y="145" width="220" height="430" rx="14" fill="#e6e8eb" fill-opacity=".28" stroke="#7b8790" stroke-dasharray="8 5"/><text x="640" y="173" font-family="Arial" font-size="16" font-weight="bold">eu-west-1a</text><rect x="865" y="145" width="220" height="430" rx="14" fill="#e6e8eb" fill-opacity=".28" stroke="#7b8790" stroke-dasharray="8 5"/><text x="880" y="173" font-family="Arial" font-size="16" font-weight="bold">eu-west-1b</text><path d="M165.0 415.0 L570.0 342.5" stroke="#384b59" stroke-width="2" marker-end="url(#a)"/><path d="M570.0 342.5 L755.0 415.0" stroke="#384b59" stroke-width="2" marker-end="url(#a)"/><path d="M165.0 415.0 L550.0 527.5" stroke="#384b59" stroke-width="2" marker-end="url(#a)"/><path d="M755.0 415.0 L550.0 527.5" stroke="#384b59" stroke-width="2" marker-end="url(#a)"/><rect x="75" y="220" width="180" height="80" rx="9" fill="#d9eaf7" stroke="#384b59" stroke-width="1.5"/><text x="85" y="245" font-family="Arial" font-size="14">Private subnet
route table + SG/NACL</text><rect x="315" y="220" width="180" height="80" rx="9" fill="#d9eaf7" stroke="#384b59" stroke-width="1.5"/><text x="325" y="245" font-family="Arial" font-size="14">Private subnet
route table + SG/NACL</text><rect x="115" y="390" width="100" height="50" rx="9" fill="#d9f2df" stroke="#384b59" stroke-width="1.5"/><text x="125" y="415" font-family="Arial" font-size="14">Source workload</text><rect x="645" y="220" width="180" height="80" rx="9" fill="#d9eaf7" stroke="#384b59" stroke-width="1.5"/><text x="655" y="245" font-family="Arial" font-size="14">Private subnet
route table + SG/NACL</text><rect x="885" y="220" width="180" height="80" rx="9" fill="#d9eaf7" stroke="#384b59" stroke-width="1.5"/><text x="895" y="245" font-family="Arial" font-size="14">Private subnet
route table + SG/NACL</text><rect x="685" y="390" width="140" height="50" rx="9" fill="#d9f2df" stroke="#384b59" stroke-width="1.5"/><text x="695" y="415" font-family="Arial" font-size="14">Destination workload</text><rect x="500" y="300" width="140" height="85" rx="9" fill="#d9eaf7" stroke="#384b59" stroke-width="1.5"/><text x="510" y="325" font-family="Arial" font-size="14">VPC peering
bidirectional routes</text><rect x="390" y="500" width="320" height="55" rx="9" fill="#d9f2df" stroke="#384b59" stroke-width="1.5"/><text x="400" y="525" font-family="Arial" font-size="14">TCP/443 healthy path</text><text x="35" y="660" font-family="Arial" font-size="13">Legend:</text><rect x="100" y="646" width="16" height="16" fill="#d9eaf7" stroke="#384b59"/><text x="122" y="659" font-family="Arial" font-size="12">Implemented / approved contract</text><rect x="295" y="646" width="16" height="16" fill="#d9f2df" stroke="#384b59"/><text x="317" y="659" font-family="Arial" font-size="12">Validated evidence / verification</text><rect x="490" y="646" width="16" height="16" fill="#e6e8eb" stroke="#384b59"/><text x="512" y="659" font-family="Arial" font-size="12">Historical / deleted resource</text><rect x="685" y="646" width="16" height="16" fill="#ffe6b3" stroke="#384b59"/><text x="707" y="659" font-family="Arial" font-size="12">Deferred / bounded-scope capability</text><rect x="880" y="646" width="16" height="16" fill="#ffd6d6" stroke="#384b59"/><text x="902" y="659" font-family="Arial" font-size="12">Rejected / blocked path</text></svg>